# xmcd CD database file
#
# Track frame offsets:
#	150
#	26634
#	49065
#	71605
#	88478
#	108918
#	131423
#	147795
#	170302
#	191279
#	213707
#	236205
#	259546
#
# Disc length: 3759 seconds
#
# Revision: 0
# Processed by: cddbd v1.5.2PL0 Copyright (c) Steve Scherf et al.
# Submitted via: CDex 1.51
#
DISCID=ba0ead0d
DTITLE=Various Artist - Hörvergnügen 4 - CD1
DYEAR=2007
DGENRE=Jazz
TTITLE0=Cecile Verny Quartet - The Bitter and The Sweet
TTITLE1=Anke Helfrich Trio - Better Times Ahead
TTITLE2=Alony - Silent Sneekers
TTITLE3=Rabbits In The Moon - Movies Break
TTITLE4=Thomas Siffling - The Energy Of A Small Woman
TTITLE5=Olivia Trummer Trio - Eternal Dance
TTITLE6=Pete Alderton - Evil Was Here Name
TTITLE7=Nils Wolgram Root 70 - Bird's Trip
TTITLE8=tingvall Trio - Norrland Guld
TTITLE9=Dominic Miller - Meeting Point
TTITLE10=Maurice El Medioni - Oran Oran
TTITLE11=Mister Bond - A View To A Kill
TTITLE12=Billy Cobham and Colin Towns and hr Bigband - Eternity'y Breath
EXTD=YEAR: 2007
EXTT0=
EXTT1=
EXTT2=
EXTT3=
EXTT4=
EXTT5=
EXTT6=
EXTT7=
EXTT8=
EXTT9=
EXTT10=
EXTT11=
EXTT12=
PLAYORDER=
